<svg xmlns="http://www.w3.org/2000/svg" width="400" height="511" fill="none"><g clip-path="url(#a)"><path fill="#fff" d="M14 39a461 461 0 0 1 372 0c19 275-43 430-186 467C57 469-5 314 14 39Z"/><path fill="#6CADC9" d="m200 89 6 12 13-1-8 11 8 11-13-1-6 13-6-13-13 1 8-11-8-11 13 1M148 19l5 12 14-1-8 11 8 11-14-1-5 13-6-13-14 1 8-11-8-11 14 1M253 19l5 12 14-1-8 11 8 11-14-1-5 13-6-13-14 1 8-11-8-11 14 1M200 161l45 90 30-40 75 100-2 14a232 232 0 0 1-148 156A232 232 0 0 1 52 325l-2-14 75-100 30 40 45-90Z"/><path fill="#fff" d="M52 325a50 50 0 0 0 73 29 50 50 0 0 1 50 0 50 50 0 0 0 50 0 50 50 0 0 1 50 0 50 50 0 0 0 73-29h2v37c-9 0-17 2-25 7a50 50 0 0 1-50 0 50 50 0 0 0-50 0 50 50 0 0 1-50 0 50 50 0 0 0-50 0 50 50 0 0 1-50 0c-8-5-16-7-25-7v-37"/><path fill="#fff" d="M52 354a50 50 0 0 0 73 29 50 50 0 0 1 50 0 50 50 0 0 0 50 0 50 50 0 0 1 50 0 50 50 0 0 0 73-29h2v37c-9 0-17 2-25 7a50 50 0 0 1-50 0 50 50 0 0 0-50 0 50 50 0 0 1-50 0 50 50 0 0 0-50 0 50 50 0 0 1-50 0c-8-5-16-7-25-7v-37"/><path fill="#6CADC9" stroke="#fff" d="m386 40 13 6-14 231a261 261 0 0 1-185 233A261 261 0 0 1 15 277L1 46l13-6 14 236a247 247 0 0 0 172 220 247 247 0 0 0 172-220l14-236Z"/></g><defs><clipPath id="a"><path fill="#fff" d="M0 0h400v511H0z"/></clipPath></defs></svg>