<svg id="icon" width="982" height="304" viewBox="0 0 982 304" xmlns="http://www.w3.org/2000/svg">
<path d="M512.39 111.625L452.145 266H418.334L358.088 111.625H398.662L435.239 217.835L471.817 111.625H512.39Z" />
<path d="M549.066 93.7175C541.484 93.7175 535.439 91.6592 530.931 87.5425C526.423 83.22 524.169 77.5596 524.169 70.5612C524.169 63.5629 526.423 58.0054 530.931 53.8887C535.439 49.5662 541.484 47.405 549.066 47.405C556.648 47.405 562.693 49.5662 567.201 53.8887C571.914 58.0054 574.271 63.5629 574.271 70.5612C574.271 77.5596 572.017 83.22 567.509 87.5425C563 91.6592 556.853 93.7175 549.066 93.7175ZM529.702 111.625H568.738V266H529.702V111.625Z" />
<path d="M655.245 269.088C635.163 269.088 619.282 261.78 607.602 247.166C596.126 232.346 590.389 212.072 590.389 186.342C590.389 170.699 593.053 157.011 598.38 145.279C603.708 133.546 611.29 124.49 621.126 118.109C631.167 111.728 642.847 108.537 656.167 108.537C665.183 108.537 673.072 110.081 679.835 113.169C686.802 116.256 692.847 120.99 697.97 127.371H698.584V36.9075H737.621V224.936C737.621 246.343 737.928 260.031 738.543 266H701.658C701.453 262.501 701.351 255.708 701.351 245.622H700.736C696.023 252.621 689.466 258.281 681.064 262.604C672.867 266.926 664.261 269.088 655.245 269.088ZM662.929 238.83C673.79 238.83 682.396 235.742 688.748 229.567C695.306 223.187 698.584 214.85 698.584 204.559V172.757C698.584 162.672 695.203 154.335 688.441 147.749C681.679 141.162 673.175 137.869 662.929 137.869C652.068 137.869 643.769 142.088 638.032 150.527C632.294 158.967 629.425 171.111 629.425 186.96C629.425 203.633 632.294 216.497 638.032 225.554C643.769 234.405 652.068 238.83 662.929 238.83Z" />
<path d="M786.068 93.7175C778.486 93.7175 772.441 91.6592 767.933 87.5425C763.425 83.22 761.171 77.5596 761.171 70.5612C761.171 63.5629 763.425 58.0054 767.933 53.8887C772.441 49.5662 778.486 47.405 786.068 47.405C793.65 47.405 799.695 49.5662 804.203 53.8887C808.916 58.0054 811.273 63.5629 811.273 70.5612C811.273 77.5596 809.019 83.22 804.511 87.5425C800.003 91.6592 793.855 93.7175 786.068 93.7175ZM766.704 111.625H805.74V266H766.704V111.625Z" />
<path d="M937.738 266L892.247 194.061L873.804 212.277V266H834.46V36.9075H873.804V165.039L927.902 111.625H976.16L919.296 167.509L982 266H937.738Z" />
<path d="M53.1994 20.1875C53.1994 9.03825 62.1973 0 73.2969 0H228.166C239.266 0 248.264 9.03825 248.264 20.1875C248.264 31.3367 239.266 40.375 228.166 40.375H73.2969C62.1973 40.375 53.1994 31.3367 53.1994 20.1875Z" />
<path d="M0 85.5C0 74.3508 8.99797 65.3125 20.0975 65.3125H174.967C186.066 65.3125 195.064 74.3508 195.064 85.5C195.064 96.6492 186.066 105.688 174.967 105.688H20.0975C8.99798 105.688 0 96.6492 0 85.5Z" />
<path d="M34.284 150.812C34.284 139.663 43.282 130.625 54.3816 130.625H212.797C223.897 130.625 232.895 139.663 232.895 150.812C232.895 161.962 223.897 171 212.797 171H54.3816C43.282 171 34.284 161.962 34.284 150.812Z" />
<path d="M60.2926 216.125C60.2926 204.976 69.2906 195.938 80.3901 195.938H261.268C272.367 195.938 281.365 204.976 281.365 216.125C281.365 227.274 272.367 236.312 261.268 236.312H80.3901C69.2906 236.312 60.2926 227.274 60.2926 216.125Z" />
<path d="M16.5509 283.812C16.5509 272.663 25.5489 263.625 36.6484 263.625H212.797C223.897 263.625 232.895 272.663 232.895 283.812C232.895 294.962 223.897 304 212.797 304H36.6484C25.5489 304 16.5509 294.962 16.5509 283.812Z" />
<path d="M251.81 152C251.81 140.195 261.338 130.625 273.09 130.625C284.842 130.625 294.37 140.195 294.37 152C294.37 163.805 284.842 173.375 273.09 173.375C261.338 173.375 251.81 163.805 251.81 152Z" />
<path d="M213.98 85.5C213.98 73.6949 223.507 64.125 235.259 64.125C247.012 64.125 256.539 73.6949 256.539 85.5C256.539 97.3051 247.012 106.875 235.259 106.875C223.507 106.875 213.98 97.3051 213.98 85.5Z" />
</svg>
