<svg width="296" height="91" viewBox="0 0 296 91" fill="none" xmlns="http://www.w3.org/2000/svg">
<path d="M150.988 35L133.618 80H124.618L107.248 35H117.778L129.118 67.58L140.458 35H150.988Z" fill="#F9FAFB"/>
<path d="M164.013 28.88C161.973 28.88 160.323 28.34 159.063 27.26C157.863 26.12 157.263 24.62 157.263 22.76C157.263 20.84 157.863 19.34 159.063 18.26C160.323 17.12 161.973 16.55 164.013 16.55C166.053 16.55 167.673 17.12 168.873 18.26C170.133 19.34 170.763 20.84 170.763 22.76C170.763 24.62 170.133 26.12 168.873 27.26C167.673 28.34 166.053 28.88 164.013 28.88ZM158.883 35H169.143V80H158.883V35Z" fill="#F9FAFB"/>
<path d="M197.463 80.9C191.583 80.9 186.963 78.74 183.603 74.42C180.243 70.1 178.563 64.19 178.563 56.69C178.563 52.13 179.343 48.17 180.903 44.81C182.463 41.39 184.683 38.75 187.563 36.89C190.443 35.03 193.833 34.1 197.733 34.1C203.073 34.1 207.273 36.08 210.333 40.04H210.513V13.22H220.683V68.21C220.683 74.27 220.773 78.2 220.953 80H211.413C211.293 78.8 211.233 76.67 211.233 73.61H211.053C209.673 75.77 207.723 77.54 205.203 78.92C202.743 80.24 200.163 80.9 197.463 80.9ZM199.353 72.98C202.713 72.98 205.383 71.99 207.363 70.01C209.403 68.03 210.423 65.36 210.423 62V53.09C210.423 49.79 209.373 47.09 207.273 44.99C205.233 42.83 202.593 41.75 199.353 41.75C195.933 41.75 193.293 43.07 191.433 45.71C189.633 48.35 188.733 52.07 188.733 56.87C188.733 61.97 189.663 65.93 191.523 68.75C193.383 71.57 195.993 72.98 199.353 72.98Z" fill="#F9FAFB"/>
<path d="M237.489 28.88C235.449 28.88 233.799 28.34 232.539 27.26C231.339 26.12 230.739 24.62 230.739 22.76C230.739 20.84 231.339 19.34 232.539 18.26C233.799 17.12 235.449 16.55 237.489 16.55C239.529 16.55 241.149 17.12 242.349 18.26C243.609 19.34 244.239 20.84 244.239 22.76C244.239 24.62 243.609 26.12 242.349 27.26C241.149 28.34 239.529 28.88 237.489 28.88ZM232.359 35H242.619V80H232.359V35Z" fill="#F9FAFB"/>
<path d="M283.99 80L270.22 58.49L264.37 64.16V80H254.2V13.22H264.37V51.92L281.56 35H294.07L277.15 51.56L295.6 80H283.99Z" fill="#F9FAFB"/>
<path d="M15 6C15 2.68629 17.6863 0 21 0H72C75.3137 0 78 2.68629 78 6C78 9.31371 75.3137 12 72 12H21C17.6863 12 15 9.31371 15 6Z" fill="#F9FAFB"/>
<path d="M0 25.5C0 21.9101 2.91015 19 6.5 19H55.5C59.0899 19 62 21.9101 62 25.5C62 29.0899 59.0899 32 55.5 32H6.5C2.91015 32 0 29.0899 0 25.5Z" fill="#F9FAFB"/>
<path d="M10 45C10 41.6863 12.6863 39 16 39H66C69.3137 39 72 41.6863 72 45C72 48.3137 69.3137 51 66 51H16C12.6863 51 10 48.3137 10 45Z" fill="#F9FAFB"/>
<path d="M19 64.5C19 60.9101 21.9101 58 25.5 58H80.5C84.0899 58 87 60.9101 87 64.5C87 68.0899 84.0899 71 80.5 71H25.5C21.9101 71 19 68.0899 19 64.5Z" fill="#F9FAFB"/>
<path d="M5 85C5 81.6863 7.68629 79 11 79H66C69.3137 79 72 81.6863 72 85C72 88.3137 69.3137 91 66 91H11C7.68629 91 5 88.3137 5 85Z" fill="#F9FAFB"/>
<path d="M76 45C76 41.6863 78.6863 39 82 39H83C86.3137 39 89 41.6863 89 45C89 48.3137 86.3137 51 83 51H82C78.6863 51 76 48.3137 76 45Z" fill="#F9FAFB"/>
<path d="M65 25C65 21.6863 67.6863 19 71 19C74.3137 19 77 21.6863 77 25C77 28.3137 74.3137 31 71 31C67.6863 31 65 28.3137 65 25Z" fill="#F9FAFB"/>
</svg>
